<svg width="30" height="30" viewBox="0 0 30 30" fill="none" xmlns="http://www.w3.org/2000/svg">
<path d="M15.1111 20.9444C16.4444 20.9444 17.5648 20.4907 18.4722 19.5833C19.3796 18.6759 19.8333 17.5463 19.8333 16.1944C19.8333 14.8611 19.3796 13.7454 18.4722 12.8472C17.5648 11.9491 16.4444 11.5 15.1111 11.5C13.7593 11.5 12.6343 11.9491 11.7361 12.8472C10.838 13.7454 10.3889 14.8611 10.3889 16.1944C10.3889 17.5463 10.838 18.6759 11.7361 19.5833C12.6343 20.4907 13.7593 20.9444 15.1111 20.9444ZM15.1111 19.2778C14.2222 19.2778 13.4907 18.9861 12.9167 18.4028C12.3426 17.8194 12.0556 17.0833 12.0556 16.1944C12.0556 15.3241 12.3426 14.6019 12.9167 14.0278C13.4907 13.4537 14.2222 13.1667 15.1111 13.1667C15.9815 13.1667 16.7083 13.4537 17.2917 14.0278C17.875 14.6019 18.1667 15.3241 18.1667 16.1944C18.1667 17.0833 17.875 17.8194 17.2917 18.4028C16.7083 18.9861 15.9815 19.2778 15.1111 19.2778V19.2778ZM5.66667 25C5.22222 25 4.83333 24.8333 4.5 24.5C4.16667 24.1667 4 23.7778 4 23.3333V9.08333C4 8.65741 4.16667 8.27315 4.5 7.93056C4.83333 7.58796 5.22222 7.41667 5.66667 7.41667H9.75L11.7778 5H18.4444L20.4722 7.41667H24.5556C24.9815 7.41667 25.3657 7.58796 25.7083 7.93056C26.0509 8.27315 26.2222 8.65741 26.2222 9.08333V23.3333C26.2222 23.7778 26.0509 24.1667 25.7083 24.5C25.3657 24.8333 24.9815 25 24.5556 25H5.66667ZM24.5556 23.3333V9.08333H19.6944L17.6667 6.66667H12.5556L10.5278 9.08333H5.66667V23.3333H24.5556Z" fill="black"/>
</svg>
