<svg width="24" height="24" viewBox="0 0 24 24" fill="none" xmlns="http://www.w3.org/2000/svg">
<path d="M11.6117 6.16799C8.6011 6.16799 6.17272 8.59636 6.17272 11.607C6.17272 14.6176 8.6011 17.046 11.6117 17.046C14.6223 17.046 17.0507 14.6176 17.0507 11.607C17.0507 8.59636 14.6223 6.16799 11.6117 6.16799ZM11.6117 15.143C9.66617 15.143 8.07566 13.5573 8.07566 11.607C8.07566 9.65671 9.66144 8.07093 11.6117 8.07093C13.562 8.07093 15.1478 9.65671 15.1478 11.607C15.1478 13.5573 13.5573 15.143 11.6117 15.143V15.143ZM18.5418 5.94551C18.5418 6.65082 17.9738 7.21413 17.2732 7.21413C16.5679 7.21413 16.0046 6.64609 16.0046 5.94551C16.0046 5.24492 16.5726 4.67688 17.2732 4.67688C17.9738 4.67688 18.5418 5.24492 18.5418 5.94551ZM22.1441 7.23307C22.0637 5.53368 21.6755 4.02837 20.4305 2.78815C19.1903 1.54792 17.685 1.15976 15.9856 1.07456C14.2342 0.975148 8.98453 0.975148 7.23307 1.07456C5.53841 1.15503 4.0331 1.54319 2.78815 2.78341C1.54319 4.02363 1.15976 5.52894 1.07456 7.22833C0.975148 8.97979 0.975148 14.2294 1.07456 15.9809C1.15503 17.6803 1.54319 19.1856 2.78815 20.4258C4.0331 21.666 5.53368 22.0542 7.23307 22.1394C8.98453 22.2388 14.2342 22.2388 15.9856 22.1394C17.685 22.0589 19.1903 21.6708 20.4305 20.4258C21.6708 19.1856 22.0589 17.6803 22.1441 15.9809C22.2435 14.2294 22.2435 8.98453 22.1441 7.23307V7.23307ZM19.8814 17.8602C19.5122 18.788 18.7974 19.5027 17.8649 19.8767C16.4685 20.4305 13.1549 20.3027 11.6117 20.3027C10.0685 20.3027 6.75023 20.4258 5.35853 19.8767C4.43073 19.5075 3.71595 18.7927 3.34199 17.8602C2.78815 16.4637 2.91595 13.1502 2.91595 11.607C2.91595 10.0638 2.79288 6.7455 3.34199 5.3538C3.71121 4.426 4.426 3.71121 5.35853 3.33725C6.75496 2.78341 10.0685 2.91122 11.6117 2.91122C13.1549 2.91122 16.4732 2.78815 17.8649 3.33725C18.7927 3.70648 19.5075 4.42126 19.8814 5.3538C20.4353 6.75023 20.3075 10.0638 20.3075 11.607C20.3075 13.1502 20.4353 16.4685 19.8814 17.8602Z" fill="black"/>
</svg>
