<svg width="38" height="38" viewBox="0 0 38 38" fill="none" xmlns="http://www.w3.org/2000/svg">
<rect x="0.5" y="0.5" width="37" height="37" rx="3.5" fill="black" stroke="white"/>
<path d="M26.9315 12.0257C26.767 11.9407 26.6069 11.8475 26.4517 11.7464C26.0003 11.448 25.5865 11.0965 25.2192 10.6993C24.3 9.64762 23.9568 8.5807 23.8303 7.83371H23.8354C23.7298 7.21367 23.7734 6.8125 23.7801 6.8125H19.5936V23.0005C19.5936 23.2179 19.5936 23.4327 19.5845 23.645C19.5845 23.6714 19.582 23.6957 19.5804 23.7242C19.5804 23.7359 19.5804 23.748 19.5779 23.7602C19.5779 23.7633 19.5779 23.7663 19.5779 23.7694C19.5338 24.3502 19.3476 24.9113 19.0357 25.4033C18.7238 25.8952 18.2959 26.303 17.7894 26.5908C17.2615 26.8911 16.6645 27.0486 16.0572 27.0478C14.1067 27.0478 12.5259 25.4573 12.5259 23.4931C12.5259 21.5289 14.1067 19.9384 16.0572 19.9384C16.4265 19.9381 16.7934 19.9962 17.1445 20.1106L17.1495 15.848C16.0838 15.7103 15.0012 15.795 13.9698 16.0968C12.9385 16.3985 11.9808 16.9106 11.1574 17.601C10.4358 18.2279 9.82916 18.976 9.36478 19.8115C9.18806 20.1162 8.5213 21.3405 8.44056 23.3276C8.38978 24.4554 8.72849 25.6239 8.88997 26.1068V26.117C8.99154 26.4014 9.38509 27.3718 10.0265 28.1899C10.5436 28.8461 11.1547 29.4226 11.8399 29.9007V29.8905L11.85 29.9007C13.8767 31.2779 16.1238 31.1875 16.1238 31.1875C16.5127 31.1718 17.8158 31.1875 19.2956 30.4862C20.9368 29.7087 21.8712 28.5504 21.8712 28.5504C22.4681 27.8583 22.9428 27.0696 23.2748 26.218C23.6536 25.2222 23.7801 24.0278 23.7801 23.5505V14.9624C23.8308 14.9929 24.5072 15.4402 24.5072 15.4402C24.5072 15.4402 25.4817 16.0648 27.0021 16.4716C28.0929 16.7611 29.5625 16.822 29.5625 16.822V12.6661C29.0476 12.7219 28.002 12.5594 26.9315 12.0257Z" fill="white"/>
</svg>
