<svg width="30" height="30" viewBox="0 0 30 30" fill="none" xmlns="http://www.w3.org/2000/svg">
<path d="M1 22V20.4542C1 19.6958 1.40833 19.0833 2.225 18.6167C3.04167 18.15 4.09167 17.9167 5.375 17.9167C5.62778 17.9167 5.86111 17.9215 6.075 17.9312C6.28889 17.941 6.50278 17.9653 6.71667 18.0042C6.56111 18.3347 6.44444 18.6701 6.36667 19.0104C6.28889 19.3507 6.25 19.7153 6.25 20.1042V22H1ZM8 22V20.1042C8 18.8403 8.64653 17.8194 9.93958 17.0417C11.2326 16.2639 12.9194 15.875 15 15.875C17.1 15.875 18.7917 16.2639 20.075 17.0417C21.3583 17.8194 22 18.8403 22 20.1042V22H8ZM23.75 22V20.1042C23.75 19.7153 23.716 19.3507 23.6479 19.0104C23.5799 18.6701 23.4681 18.3347 23.3125 18.0042C23.5264 17.9653 23.7403 17.941 23.9542 17.9312C24.1681 17.9215 24.3917 17.9167 24.625 17.9167C25.9472 17.9167 27.0069 18.15 27.8042 18.6167C28.6014 19.0833 29 19.6958 29 20.4542V22H23.75ZM15 17.625C13.4444 17.625 12.1806 17.8583 11.2083 18.325C10.2361 18.7917 9.75 19.3847 9.75 20.1042V20.25H20.25V20.075C20.25 19.375 19.7687 18.7917 18.8062 18.325C17.8437 17.8583 16.575 17.625 15 17.625ZM5.375 17.0417C4.81111 17.0417 4.32986 16.8424 3.93125 16.4437C3.53264 16.0451 3.33333 15.5639 3.33333 15C3.33333 14.4361 3.53264 13.9549 3.93125 13.5562C4.32986 13.1576 4.81111 12.9583 5.375 12.9583C5.93889 12.9583 6.42014 13.1576 6.81875 13.5562C7.21736 13.9549 7.41667 14.4361 7.41667 15C7.41667 15.5639 7.21736 16.0451 6.81875 16.4437C6.42014 16.8424 5.93889 17.0417 5.375 17.0417ZM24.625 17.0417C24.0611 17.0417 23.5799 16.8424 23.1813 16.4437C22.7826 16.0451 22.5833 15.5639 22.5833 15C22.5833 14.4361 22.7826 13.9549 23.1813 13.5562C23.5799 13.1576 24.0611 12.9583 24.625 12.9583C25.1889 12.9583 25.6701 13.1576 26.0687 13.5562C26.4674 13.9549 26.6667 14.4361 26.6667 15C26.6667 15.5639 26.4674 16.0451 26.0687 16.4437C25.6701 16.8424 25.1889 17.0417 24.625 17.0417ZM15 15C14.0278 15 13.2014 14.6597 12.5208 13.9792C11.8403 13.2986 11.5 12.4722 11.5 11.5C11.5 10.5083 11.8403 9.67708 12.5208 9.00625C13.2014 8.33542 14.0278 8 15 8C15.9917 8 16.8229 8.33542 17.4937 9.00625C18.1646 9.67708 18.5 10.5083 18.5 11.5C18.5 12.4722 18.1646 13.2986 17.4937 13.9792C16.8229 14.6597 15.9917 15 15 15ZM15 9.75C14.5139 9.75 14.1007 9.91528 13.7604 10.2458C13.4201 10.5764 13.25 10.9944 13.25 11.5C13.25 11.9861 13.4201 12.3993 13.7604 12.7396C14.1007 13.0799 14.5139 13.25 15 13.25C15.5056 13.25 15.9236 13.0799 16.2542 12.7396C16.5847 12.3993 16.75 11.9861 16.75 11.5C16.75 10.9944 16.5847 10.5764 16.2542 10.2458C15.9236 9.91528 15.5056 9.75 15 9.75Z" fill="black"/>
</svg>
