<svg width="24" height="24" viewBox="0 0 24 24" fill="none" xmlns="http://www.w3.org/2000/svg">
<path d="M22.9992 9.84202C20.935 9.84696 18.9214 9.20321 17.2429 8.00171V16.3813C17.2424 17.9333 16.768 19.4482 15.8832 20.7233C14.9985 21.9984 13.7456 22.973 12.2919 23.5168C10.8383 24.0606 9.25336 24.1477 7.74893 23.7664C6.24451 23.3851 4.89235 22.5536 3.87326 21.383C2.85417 20.2125 2.21673 18.7587 2.04617 17.2161C1.87561 15.6735 2.18006 14.1156 2.91881 12.7507C3.65756 11.3858 4.7954 10.279 6.18018 9.57823C7.56497 8.87746 9.13069 8.61616 10.668 8.82927V13.0439C9.96451 12.8227 9.20911 12.8293 8.50966 13.063C7.8102 13.2966 7.20246 13.7453 6.77322 14.345C6.34399 14.9446 6.1152 15.6646 6.11955 16.402C6.12389 17.1395 6.36114 17.8567 6.79741 18.4512C7.23368 19.0458 7.84667 19.4873 8.54882 19.7127C9.25098 19.9381 10.0064 19.9359 10.7072 19.7063C11.408 19.4768 12.0184 19.0316 12.4512 18.4345C12.8839 17.8374 13.1169 17.1188 13.1169 16.3813V0H17.2429C17.2401 0.348435 17.2693 0.696395 17.3301 1.03948C17.4735 1.80537 17.7716 2.53396 18.2062 3.18068C18.6409 3.8274 19.2028 4.37867 19.8578 4.80075C20.7896 5.41688 21.8821 5.74528 22.9992 5.74505V9.84202Z" fill="black"/>
</svg>
