<svg width="30" height="30" viewBox="0 0 30 30" fill="none" xmlns="http://www.w3.org/2000/svg">
<path d="M8.10391 23.725C7.19778 23.725 6.42572 23.406 5.78773 22.768C5.14974 22.13 4.83075 21.358 4.83075 20.4518H3V7.66432C3 7.2205 3.16643 6.83216 3.4993 6.4993C3.83216 6.16643 4.2205 6 4.66432 6H20.725V10.6324H23.6375L27.41 15.653V20.4518H25.4406C25.4406 21.358 25.1216 22.13 24.4836 22.768C23.8456 23.406 23.0735 23.725 22.1674 23.725C21.2613 23.725 20.4892 23.406 19.8512 22.768C19.2132 22.13 18.8942 21.358 18.8942 20.4518H11.3771C11.3771 21.358 11.0581 22.13 10.4201 22.768C9.7821 23.406 9.01004 23.725 8.10391 23.725ZM8.10391 22.0607C8.54773 22.0607 8.92682 21.9035 9.24119 21.5891C9.55556 21.2747 9.71275 20.8956 9.71275 20.4518C9.71275 20.008 9.55556 19.6289 9.24119 19.3145C8.92682 19.0002 8.54773 18.843 8.10391 18.843C7.66009 18.843 7.281 19.0002 6.96662 19.3145C6.65225 19.6289 6.49507 20.008 6.49507 20.4518C6.49507 20.8956 6.65225 21.2747 6.96662 21.5891C7.281 21.9035 7.66009 22.0607 8.10391 22.0607ZM4.66432 18.7875H5.27457C5.58894 18.2882 5.98653 17.8906 6.46733 17.5947C6.94813 17.2989 7.48441 17.1509 8.07617 17.1509C8.66793 17.1509 9.20883 17.3035 9.69888 17.6086C10.1889 17.9137 10.5911 18.3067 10.9055 18.7875H19.0607V7.66432H4.66432V18.7875ZM22.1674 22.0607C22.6112 22.0607 22.9903 21.9035 23.3047 21.5891C23.6191 21.2747 23.7762 20.8956 23.7762 20.4518C23.7762 20.008 23.6191 19.6289 23.3047 19.3145C22.9903 19.0002 22.6112 18.843 22.1674 18.843C21.7236 18.843 21.3445 19.0002 21.0301 19.3145C20.7157 19.6289 20.5586 20.008 20.5586 20.4518C20.5586 20.8956 20.7157 21.2747 21.0301 21.5891C21.3445 21.9035 21.7236 22.0607 22.1674 22.0607ZM20.725 16.402H25.8844L22.8054 12.2967H20.725V16.402Z" fill="black"/>
</svg>
