<?xml version="1.0" encoding="utf-8"?>
<!-- Generator: Adobe Illustrator 26.5.3, SVG Export Plug-In . SVG Version: 6.00 Build 0)  -->
<svg version="1.1" id="Layer_1" xmlns="http://www.w3.org/2000/svg" xmlns:xlink="http://www.w3.org/1999/xlink" x="0px" y="0px"
	 viewBox="0 0 800 800" style="enable-background:new 0 0 800 800;" xml:space="preserve">
<style type="text/css">
	.st0{fill:#986C2A;}
</style>
<path class="st0" d="M400,350c-92,0-166.7-74.6-166.7-166.7S308,16.7,400,16.7s166.7,74.6,166.7,166.7S492,350,400,350z M400,83.3
	c-55.2,0-100,44.8-100,100s44.8,100,100,100s100-44.8,100-100S455.2,83.3,400,83.3z"/>
<path class="st0" d="M700,783.3H100c-18.4,0-33.3-14.9-33.3-33.3V650c0-147.3,119.4-266.7,266.7-266.7h133.3
	c147.3,0,266.7,119.4,266.7,266.7v100C733.3,768.4,718.4,783.3,700,783.3z M133.3,716.7h533.3V650c0-110.5-89.5-200-200-200H333.3
	c-110.5,0-200,89.5-200,200V716.7z"/>
</svg>
